<?xml version="1.0" encoding="utf-8"?>
<!-- Generator: Adobe Illustrator 23.1.0, SVG Export Plug-In . SVG Version: 6.00 Build 0)  -->
<svg version="1.1" id="Layer_1" xmlns="http://www.w3.org/2000/svg" xmlns:xlink="http://www.w3.org/1999/xlink" x="0px" y="0px"
	 viewBox="0 0 595.28 841.89" style="enable-background:new 0 0 595.28 841.89;" xml:space="preserve">
<style type="text/css">
	.st0{opacity:0.3;fill:url(#SVGID_1_);}
	.st1{opacity:0.3;fill:url(#SVGID_2_);}
	.st2{opacity:0.8;fill:url(#SVGID_3_);}
	.st3{fill:#FFFFFF;}
</style>
<g>
	<g>
		<g>
			
				<linearGradient id="SVGID_1_" gradientUnits="userSpaceOnUse" x1="204.1833" y1="521.046" x2="917.0748" y2="521.046" gradientTransform="matrix(0.7612 -0.6485 0.6485 0.7612 -359.9349 290.9395)">
				<stop  offset="3.048780e-04" style="stop-color:#61C3AC"/>
				<stop  offset="1" style="stop-color:#00795A"/>
			</linearGradient>
			<path class="st0" d="M366.77,368.63c24.26,23.97,29.84,51.41,14.22,79.37c-1.1,2.38-2.27,4.73-3.5,7.03
				c-1.24,2.3-2.54,4.56-3.91,6.77c-2.06,3.31-4.28,6.5-6.65,9.53c-6.76,9.27-14.78,16.83-23.58,22.64
				c-2.93,1.94-5.95,3.68-9.04,5.23c-6.62,3.76-13.64,6.73-20.83,8.87c-3.6,1.07-7.24,1.93-10.89,2.57
				c-3.97,1.15-7.92,1.93-11.84,2.35c-3.92,0.43-7.8,0.5-11.62,0.26c-19.63-0.72-37.09-9.1-49.65-21.91
				c-2.51-2.56-4.83-5.3-6.93-8.19c-10.31-12.4-13.72-28.71-12.33-44.66c0.55-6.38,4.3-12.53,3.98-18.17
				c0.2-20.85-2.94-40.35,9.25-57.11c2.09-3.24,4.44-6.26,7.05-9c7.84-8.23,18-13.97,30.25-15.8c3.63-0.54,7.44-0.74,11.43-0.55
				c7.39,0.8,15.38,1.33,23.28,2.35c2.63,0.34,16.86,2.78,21.33,4.04C331.95,348.55,354.19,356.2,366.77,368.63z"/>
			
				<linearGradient id="SVGID_2_" gradientUnits="userSpaceOnUse" x1="99.3967" y1="871.8884" x2="271.2598" y2="871.8884" gradientTransform="matrix(-0.9838 -0.1795 0.1795 -0.9838 314.1401 1303.2275)">
				<stop  offset="3.048780e-04" style="stop-color:#61C3AC"/>
				<stop  offset="1" style="stop-color:#00795A"/>
			</linearGradient>
			<path class="st1" d="M205.72,388.37c2.94-31.25,19.4-51.17,48.72-56.25c2.36-0.6,4.74-1.13,7.13-1.58
				c2.39-0.46,4.78-0.84,7.18-1.14c3.6-0.45,7.2-0.72,10.78-0.78c10.66-0.56,20.83,0.78,30.2,3.69c3.12,0.97,6.16,2.12,9.09,3.42
				c6.6,2.55,12.88,5.83,18.66,9.73c2.89,1.95,5.65,4.05,8.27,6.29c3.17,2.16,6.06,4.54,8.68,7.09s4.96,5.28,7.04,8.15
				c11.06,14.44,15.33,31.77,13.52,48.18c-0.36,3.28-0.96,6.53-1.81,9.7c-2.85,14.56-12.57,26.47-24.86,34.74
				c-4.92,3.31-11.55,4.2-15.42,7.71c-15.12,11.97-27.3,25.53-46.55,26.55c-3.56,0.39-7.12,0.46-10.64,0.19
				c-10.54-0.82-20.67-4.74-29.21-12.43c-2.53-2.28-4.92-4.89-7.14-7.84c-3.79-5.75-8.12-11.76-12.03-17.99
				c-1.31-2.08-7.94-13.65-9.67-17.59C211.81,424.9,204.2,404.57,205.72,388.37z"/>
			
				<linearGradient id="SVGID_3_" gradientUnits="userSpaceOnUse" x1="75.1746" y1="395.493" x2="700.7039" y2="395.493" gradientTransform="matrix(0.985 0.1725 -0.1725 0.985 113.7235 -26.0401)">
				<stop  offset="0" style="stop-color:#55B99A"/>
				<stop  offset="1" style="stop-color:#00756A"/>
			</linearGradient>
			<path class="st2" d="M376.15,429.92c-2.69,30.2-18.16,49.61-45.81,54.83c-2.23,0.6-4.47,1.14-6.72,1.6
				c-2.25,0.47-4.51,0.86-6.77,1.17c-3.39,0.47-6.79,0.77-10.17,0.87c-10.05,0.65-19.65-0.53-28.5-3.24
				c-2.95-0.9-5.82-1.98-8.59-3.21c-6.24-2.39-12.17-5.49-17.64-9.19c-2.73-1.85-5.35-3.85-7.82-5.98
				c-2.99-2.06-5.73-4.32-8.21-6.75s-4.7-5.05-6.66-7.79c-10.48-13.82-14.55-30.51-12.89-46.37c0.33-3.17,0.89-6.31,1.68-9.39
				c2.65-14.09,11.78-25.69,23.36-33.81c4.63-3.25,10.89-4.18,14.53-7.61c14.24-11.72,25.69-24.94,43.85-26.14
				c3.36-0.42,6.72-0.52,10.03-0.3c9.95,0.68,19.52,4.36,27.59,11.68c2.39,2.17,4.65,4.66,6.76,7.49
				c3.59,5.51,7.69,11.26,11.4,17.24c1.24,1.99,7.53,13.1,9.17,16.87C370.31,394.72,377.55,414.26,376.15,429.92z"/>
		</g>
	</g>
	<g>
		<path class="st3" d="M229.71,424.62h6.13v1.62h-8.22v-12.97h2.1V424.62z"/>
		<path class="st3" d="M247.83,418.8v1.91c0,3.24-1.24,5.72-5.35,5.72c-4.13,0-5.35-2.48-5.35-5.72v-1.91
			c0-3.24,1.22-5.72,5.35-5.72C246.59,413.07,247.83,415.55,247.83,418.8z M239.23,418.8v1.91c0,2.42,0.5,4.1,3.25,4.1
			c2.75,0,3.25-1.68,3.25-4.1v-1.91c0-2.42-0.5-4.1-3.25-4.1C239.73,414.69,239.23,416.37,239.23,418.8z"/>
		<path class="st3" d="M255.07,424.33l3.59-11.07h2.18l-4.36,13.07h-2.77l-4.36-13.07h2.14L255.07,424.33z"/>
		<path class="st3" d="M265.04,418.76h6.12v1.62h-6.12v4.24h6.5v1.62h-8.6v-12.97h8.6v1.62h-6.5V418.76z"/>
		<path class="st3" d="M273.78,425.4c0-0.71,0.4-1.01,1.15-1.01c0.76,0,1.15,0.31,1.15,1.01c0,0.71-0.4,1.03-1.15,1.03
			C274.18,426.43,273.78,426.1,273.78,425.4z"/>
		<path class="st3" d="M283.5,413.26c4.11,0,5.35,2.35,5.35,5.53v1.91c0,3.19-1.24,5.53-5.35,5.53h-4.78v-12.97H283.5z
			 M280.81,414.89v9.73h2.68c2.75,0,3.25-1.53,3.25-3.91v-1.91c0-2.4-0.48-3.91-3.25-3.91H280.81z"/>
		<path class="st3" d="M291.6,426.24v-12.97h2.1v12.97H291.6z"/>
		<path class="st3" d="M305.08,413.53v1.6c-1.55-0.34-2.96-0.44-3.75-0.44c-1.97,0-2.79,0.71-2.79,1.81v0.29
			c0,3.09,7.07,0.69,7.07,5.55v0.34c0,2.56-1.8,3.74-4.89,3.74c-1.43,0-3.23-0.13-4.47-0.42v-1.62c1.51,0.31,3.17,0.42,4.26,0.42
			c2.43,0,3-0.95,3-2.06v-0.29c0-3.05-7.07-0.55-7.07-5.69v-0.34c0-2.25,1.87-3.36,4.76-3.36
			C302.65,413.07,303.81,413.23,305.08,413.53z"/>
		<path class="st3" d="M316.46,414.89h-3.84v11.35h-2.1v-11.35h-3.82v-1.62h9.75V414.89z"/>
		<path class="st3" d="M345.01,426.24h-1.95l-6.4-9.63v9.63h-1.97v-12.97h2.03l6.31,9.63l-0.02-9.63h1.99V426.24z"/>
		<path class="st3" d="M356.63,413.46v1.62c-1.32-0.27-2.16-0.38-3.27-0.38c-2.75,0-3.5,1.76-3.5,4.1v1.91c0,2.35,0.75,4.1,3.5,4.1
			c1.11,0,1.95-0.11,3.27-0.38v1.62c-0.88,0.19-1.99,0.38-3.38,0.38c-4.11,0-5.49-2.48-5.49-5.72v-1.91c0-3.24,1.38-5.72,5.49-5.72
			C354.64,413.07,355.75,413.26,356.63,413.46z"/>
		<path class="st3" d="M361.17,418.76h6.12v1.62h-6.12v4.24h6.5v1.62h-8.6v-12.97h8.6v1.62h-6.5V418.76z"/>
		<g>
			<path class="st3" d="M331.54,421.18l-0.1,0.49c-0.52,2.67-1.91,5.1-5.62,4.37l-0.49-0.1l0.14-1.21
				c-0.86,0.51-1.83,0.95-2.94,0.73c-1.92-0.38-2.4-1.76-1.95-4.09l0.33-1.7c0.46-2.33,1.43-3.42,3.35-3.05
				c1.12,0.22,1.85,0.99,2.45,1.79l0.31-1.07l0.7,0.14l-1.54,7.84c3.04,0.57,4.04-1.58,4.48-3.81l0.1-0.49
				c0.67-3.4-0.37-6.83-5.15-7.77c-4.78-0.94-7.04,1.84-7.71,5.24l-0.5,2.55c-0.67,3.42,0.37,6.85,5.15,7.79l-0.15,0.78
				c-5.15-1.01-6.55-4.77-5.77-8.72l0.5-2.55c0.77-3.93,3.49-6.88,8.64-5.87C330.88,413.48,332.31,417.24,331.54,421.18z
				 M325.59,424.09l0.99-5.05c-0.57-0.82-1.39-1.51-2.22-1.67c-1.65-0.32-2.27,0.76-2.6,2.46l-0.33,1.7
				c-0.33,1.7-0.17,2.94,1.48,3.27C323.73,424.96,324.75,424.63,325.59,424.09z"/>
		</g>
	</g>
</g>
</svg>
